<?xml version="1.0" encoding="utf-8"?>
<!-- Generator: Adobe Illustrator 22.1.0, SVG Export Plug-In . SVG Version: 6.00 Build 0)  -->
<svg version="1.1" id="Layer_1" xmlns="http://www.w3.org/2000/svg" xmlns:xlink="http://www.w3.org/1999/xlink" x="0px" y="0px"
	 viewBox="0 0 200 200" style="enable-background:new 0 0 200 200;" xml:space="preserve">
<style type="text/css">
	.st0{enable-background:new    ;}
	.st1{fill:#97958C;}
	.st2{fill:#807E76;}
	.st3{fill:#89887F;}
	.st4{clip-path:url(#SVGID_2_);enable-background:new    ;}
	.st5{fill:#85837B;}
	.st6{clip-path:url(#SVGID_4_);enable-background:new    ;}
	.st7{clip-path:url(#SVGID_6_);enable-background:new    ;}
	.st8{fill:#8F8D84;}
	.st9{fill:#8A887F;}
	.st10{clip-path:url(#SVGID_8_);enable-background:new    ;}
	.st11{fill:#B3B0A5;}
	.st12{clip-path:url(#SVGID_10_);enable-background:new    ;}
	.st13{fill:#CDCBBE;}
	.st14{clip-path:url(#SVGID_12_);enable-background:new    ;}
	.st15{clip-path:url(#SVGID_14_);enable-background:new    ;}
	.st16{fill:#B8B5AA;}
	.st17{fill:#ADABA0;}
	.st18{fill:#A8A69C;}
	.st19{fill:#A3A197;}
	.st20{fill:#9E9C92;}
	.st21{fill:#99978E;}
	.st22{fill:#949289;}
	.st23{fill:#BEBCB0;}
	.st24{fill:#84827A;}
	.st25{fill:#9D9B91;}
	.st26{fill:#817F77;}
	.st27{fill:#9C9A90;}
	.st28{fill:#95948A;}
	.st29{fill:#99978D;}
	.st30{clip-path:url(#SVGID_16_);enable-background:new    ;}
	.st31{fill:#86847C;}
	.st32{clip-path:url(#SVGID_18_);enable-background:new    ;}
	.st33{fill:#B7B5AA;}
	.st34{fill:#C1BFB3;}
	.st35{fill:none;stroke:#000000;stroke-width:0.5893;stroke-miterlimit:10;}
	.st36{fill:none;stroke:#000000;stroke-width:0.2946;stroke-miterlimit:10;}
</style>
<g>
	<g>
		<g class="st0">
			<g>
				<polygon class="st1" points="61.1,138.9 61.1,138.9 85.1,163.8 85.1,163.8 				"/>
			</g>
			<g>
				<polygon class="st1" points="83.4,65.3 83.4,65.3 93.3,75.3 93.3,75.3 				"/>
			</g>
			<g>
				<polygon class="st2" points="60,77.8 60,77.8 85.1,52.6 85.1,52.6 				"/>
			</g>
			<g>
				<rect x="137.1" y="17.9" class="st3" width="16.3" height="0"/>
			</g>
			<g>
				<polygon class="st2" points="127.4,27.6 127.4,27.6 137.1,17.9 137.1,17.9 				"/>
			</g>
			<g>
				<rect x="46.5" y="17.8" class="st3" width="71.1" height="0"/>
			</g>
			<g>
				<polygon class="st1" points="117.6,17.8 117.6,17.8 127.4,27.6 127.4,27.6 				"/>
			</g>
			<g class="st0">
				<defs>
					<path id="SVGID_1_" class="st0" d="M106.3,181.7c0.2-0.4,0.5-0.8,0.8-1.6c0,0,0.1,0,0.3-0.1C107.4,180,106.3,181.7,106.3,181.7
						z"/>
				</defs>
				<clipPath id="SVGID_2_">
					<use xlink:href="#SVGID_1_"  style="overflow:visible;"/>
				</clipPath>
				<g class="st4">
					<path class="st5" d="M106.6,181.6l0.5-1.4c0,0,0.1,0,0.3-0.1l-1.1,1.7C106.3,181.7,106.4,181.7,106.6,181.6"/>
				</g>
			</g>
			<g class="st0">
				<defs>
					<path id="SVGID_3_" class="st0" d="M137.6,158.1c0.5-1.1,0.9-1.9,1.2-3.3c0,0.1,0.2,0,0.7-0.4
						C139.5,154.4,137.6,158.1,137.6,158.1z"/>
				</defs>
				<clipPath id="SVGID_4_">
					<use xlink:href="#SVGID_3_"  style="overflow:visible;"/>
				</clipPath>
				<g class="st6">
					<path class="st5" d="M138.3,157.5l0.5-2.7c0,0.1,0.2,0,0.7-0.4l-1.9,3.7C137.6,158.1,137.9,157.9,138.3,157.5"/>
				</g>
			</g>
			<g class="st0">
				<defs>
					<path id="SVGID_5_" class="st0" d="M115,174.7c0.8,0.9,1.4,1.5,2.2,1.9c-0.8-0.4-2-1-2.8-1.4C114.8,174.9,115,174.7,115,174.7z
						"/>
				</defs>
				<clipPath id="SVGID_6_">
					<use xlink:href="#SVGID_5_"  style="overflow:visible;"/>
				</clipPath>
				<g class="st7">
					<path class="st8" d="M117.2,176.6l-2.8-1.4c0.2-0.1,0.3-0.2,0.4-0.3L117.2,176.6C117.1,176.6,117.2,176.6,117.2,176.6"/>
					<path class="st9" d="M117.1,176.6l-2.3-1.7c0,0,0,0,0,0L117.1,176.6C117.1,176.6,117.1,176.6,117.1,176.6"/>
					<path class="st5" d="M117.1,176.6l-2.3-1.8c0.1-0.1,0.2-0.2,0.2-0.2l1.9,2.1C117,176.7,117.1,176.7,117.1,176.6"/>
				</g>
			</g>
			<g class="st0">
				<defs>
					<path id="SVGID_7_" class="st0" d="M114.4,27.1l4.1,9.1c0,23.5,0,47,0,70.5s0,47,0,70.5l-4.1-2c0-21.5,0-45,0-68.5
						S114.4,59.7,114.4,27.1z"/>
				</defs>
				<clipPath id="SVGID_8_">
					<use xlink:href="#SVGID_7_"  style="overflow:visible;"/>
				</clipPath>
				<g class="st10">
					<path class="st11" d="M114.4,27.1l4.1,9.1c0,23.5,0,47,0,70.5s0,47,0,70.5l-4.1-2c0-21.5,0-45,0-68.5S114.4,59.7,114.4,27.1"/>
				</g>
			</g>
			<g class="st0">
				<defs>
					<path id="SVGID_9_" class="st0" d="M115,174.7c0.6,0.6,1,1.1,1.5,1.5c0.3,0.3,0.3,0.3,2,1.1c-0.5,0.4-1.1,0.8-1.6,1.2
						c-4.6,3.3-9.2,6-13.6,8l3-4.7c0.2-0.4,0.5-0.8,0.8-1.6c0-0.1,3.7-2.3,7.4-5C114.7,174.9,115,174.7,115,174.7z"/>
				</defs>
				<clipPath id="SVGID_10_">
					<use xlink:href="#SVGID_9_"  style="overflow:visible;"/>
				</clipPath>
				<g class="st12">
					<path class="st5" d="M114.4,175.2l4.1,2c-0.1,0.1-0.2,0.2-0.4,0.3l-3.3-2.7C114.8,174.9,114.6,175,114.4,175.2"/>
					<path class="st9" d="M114.9,174.8l3.3,2.7c0,0,0,0-0.1,0.1L114.9,174.8C114.9,174.8,114.9,174.8,114.9,174.8"/>
					<path class="st8" d="M114.9,174.8l3.1,2.8c-0.4,0.3-0.8,0.6-1.2,0.9c-1.6,1.2-3.2,2.2-4.8,3.2l-1.9-3.6
						c1.3-0.8,2.8-1.8,4.3-2.9C114.8,174.9,115.2,174.6,114.9,174.8"/>
					<path class="st9" d="M110.2,178.1l1.9,3.6c-3,1.9-6,3.4-8.9,4.8l4.1-6.4C106.3,180.5,107.8,179.6,110.2,178.1"/>
				</g>
			</g>
			<g>
				<polygon class="st13" points="61.1,138.9 65.2,137.3 81,153.6 85.1,163.8 				"/>
			</g>
			<g class="st0">
				<defs>
					<path id="SVGID_11_" class="st0" d="M93.3,179l4.1,7.5c-7.5-4.8-15.8-10.7-24.3-18.2c-6.1-5.4-11.5-10.7-16-15.7
						c-1.7-1.9-4-4.9-5.6-9.2c-1.1-3-1.5-5.7-1.7-7.8l4.1-0.3c0.1,1.8,0.5,4.1,1.5,6.7c1.4,3.7,3.3,6.3,4.8,7.9
						c4.5,4.9,9.7,10.1,15.7,15.4C84.2,172.5,92.3,178.3,93.3,179z"/>
				</defs>
				<clipPath id="SVGID_12_">
					<use xlink:href="#SVGID_11_"  style="overflow:visible;"/>
				</clipPath>
				<g class="st14">
					<path class="st5" d="M93.3,179l4.1,7.5c-7.5-4.8-15.8-10.7-24.3-18.2c-6.1-5.4-11.5-10.7-16-15.7c-1.7-1.9-4-4.9-5.6-9.2
						c-1.1-3-1.5-5.7-1.7-7.8l4.1-0.3c0.1,1.8,0.5,4.1,1.5,6.7c1.4,3.7,3.3,6.3,4.8,7.9c4.5,4.9,9.7,10.1,15.7,15.4
						C84.2,172.5,92.3,178.3,93.3,179"/>
				</g>
			</g>
			<g class="st0">
				<defs>
					<path id="SVGID_13_" class="st0" d="M137.6,158.1c0.5-1.1,0.9-1.9,1.2-3.3c0.1-0.5,5.8-6.3,7.5-14.8c0.4-2,0.5-3.9,0.4-5.7h4.1
						c0.1,2-0.1,4.2-0.5,6.5c-2.3,11.8-11.2,19-14.9,21.6C135.4,162.4,137.6,158.1,137.6,158.1z"/>
				</defs>
				<clipPath id="SVGID_14_">
					<use xlink:href="#SVGID_13_"  style="overflow:visible;"/>
				</clipPath>
				<g class="st15">
					<path class="st16" d="M146.7,134.3h4.1c0,0,0,0,0,0.1L146.7,134.3C146.7,134.4,146.7,134.3,146.7,134.3"/>
					<path class="st11" d="M146.7,134.4l4.1,0c0,1.2,0,2.5-0.1,3.8l-4.1-0.4C146.7,136.6,146.7,135.5,146.7,134.4"/>
					<path class="st17" d="M146.6,137.8l4.1,0.4c-0.1,0.8-0.2,1.7-0.4,2.6c-0.1,0.3-0.1,0.6-0.2,0.9l-4-0.9c0.1-0.3,0.1-0.5,0.2-0.8
						C146.4,139.3,146.5,138.5,146.6,137.8"/>
					<path class="st18" d="M146.1,140.8l4,0.9c-0.3,1.1-0.6,2.2-0.9,3.3l-3.9-1.3C145.6,142.7,145.9,141.8,146.1,140.8"/>
					<path class="st19" d="M145.3,143.6l3.9,1.3c-0.4,1.1-0.9,2.2-1.4,3.3l-3.7-1.8C144.6,145.6,144.9,144.6,145.3,143.6"/>
					<path class="st20" d="M144.1,146.4l3.7,1.8c-0.6,1.2-1.2,2.3-1.8,3.3l-3.2-2.3C143.2,148.3,143.7,147.4,144.1,146.4"/>
					<path class="st21" d="M142.7,149.2l3.2,2.3c-0.8,1.2-1.6,2.3-2.4,3.4l-2.5-3.1C141.6,151,142.2,150.1,142.7,149.2"/>
					<path class="st22" d="M141.1,151.8l2.5,3.1c-1.1,1.3-2.2,2.5-3.3,3.6l-0.9-4.4C139.8,153.5,140.4,152.7,141.1,151.8"/>
					<path class="st8" d="M139.4,154l0.9,4.4c-1.9,1.8-3.6,3.1-4.8,4l4.1-8C138.5,155.1,138.6,155,139.4,154"/>
				</g>
			</g>
			<g>
				<polygon class="st23" points="61.1,88.3 65.2,89.9 65.2,137.3 61.1,138.9 				"/>
			</g>
			<g>
				<polygon class="st24" points="85.1,163.8 81,153.6 81,80.4 85.1,78.7 				"/>
			</g>
			<g>
				<polygon class="st23" points="93.3,75.3 97.4,73.5 97.4,186.5 93.3,179 				"/>
			</g>
			<g>
				<polygon class="st25" points="77.5,71.1 77.6,77 65.2,89.9 61.1,88.3 				"/>
			</g>
			<g>
				<polygon class="st26" points="85.1,78.7 81,80.4 77.6,77 77.5,71.1 				"/>
			</g>
			<g>
				<polygon class="st13" points="83.4,65.3 89.2,65.3 97.4,73.5 93.3,75.3 				"/>
			</g>
			<g>
				<polygon class="st27" points="93.5,55.2 97.6,56.9 89.2,65.3 83.4,65.3 				"/>
			</g>
			<g>
				<polygon class="st28" points="60,77.8 64.1,67.8 81,50.9 85.1,52.6 				"/>
			</g>
			<g>
				<polygon class="st26" points="126.7,37.9 126.7,43.4 118.5,36.2 114.4,27.1 				"/>
			</g>
			<g>
				<polygon class="st29" points="139.5,26.8 135.4,35.8 126.7,43.4 126.7,37.9 				"/>
			</g>
			<g class="st0">
				<defs>
					<path id="SVGID_15_" class="st0" d="M139.5,154.4l-4.1,8c0-21.1,0-42.2,0-63.3c0-21.1,0-42.2,0-63.3l4.1-9
						c0,30.1,0,51.2,0,72.3C139.5,120.2,139.5,141.3,139.5,154.4z"/>
				</defs>
				<clipPath id="SVGID_16_">
					<use xlink:href="#SVGID_15_"  style="overflow:visible;"/>
				</clipPath>
				<g class="st30">
					<path class="st5" d="M139.5,154.4l-4.1,8c0-21.1,0-42.2,0-63.3c0-21.1,0-42.2,0-63.3l4.1-9c0,30.1,0,51.2,0,72.3
						C139.5,120.2,139.5,141.3,139.5,154.4"/>
				</g>
			</g>
			<g>
				<polygon class="st31" points="153.5,25.3 157.6,29.5 150.8,29.5 146.7,25.3 				"/>
			</g>
			<g>
				<polygon class="st23" points="146.7,25.3 150.8,29.5 150.8,134.3 146.7,134.3 				"/>
			</g>
			<g>
				<polygon class="st24" points="107.4,180 103.3,186.5 103.3,29.2 107.4,25.1 				"/>
			</g>
			<g>
				<polygon class="st24" points="85.1,52.6 81,50.9 81,29.2 85.1,25 				"/>
			</g>
			<g>
				<polygon class="st31" points="85.1,25 81,29.2 64.1,29.2 60,25 				"/>
			</g>
			<g>
				<polygon class="st23" points="60,25 64.1,29.2 64.1,67.8 60,77.8 				"/>
			</g>
			<g>
				<polygon class="st31" points="107.4,25.1 103.3,29.2 97.6,29.2 93.5,25 				"/>
			</g>
			<g>
				<polygon class="st23" points="93.5,25 97.6,29.2 97.6,56.9 93.5,55.2 				"/>
			</g>
			<g class="st0">
				<defs>
					<path id="SVGID_17_" class="st0" d="M53.9,135.3l-4.1,0.3c0.1-35.7,0.1-71.3,0.2-107l4.1-4.1C54,64.3,54,99.9,53.9,135.3z"/>
				</defs>
				<clipPath id="SVGID_18_">
					<use xlink:href="#SVGID_17_"  style="overflow:visible;"/>
				</clipPath>
				<g class="st32">
					<path class="st5" d="M53.9,135.3l-4.1,0.3c0.1-35.7,0.1-71.3,0.2-107l4.1-4.1C54,64.3,54,99.9,53.9,135.3"/>
				</g>
			</g>
			<g>
				<polygon class="st31" points="54.1,24.5 50,28.6 42.4,28.6 46.5,24.5 				"/>
			</g>
			<g>
				<polygon class="st28" points="127.4,27.6 127.4,21.8 135.4,13.7 137.1,17.9 				"/>
			</g>
			<g>
				<polygon class="st23" points="153.5,17.9 157.6,13.7 157.6,29.5 153.5,25.3 				"/>
			</g>
			<g>
				<polygon class="st33" points="137.1,17.9 135.4,13.7 157.6,13.7 153.5,17.9 				"/>
			</g>
			<g>
				<polygon class="st13" points="117.6,17.8 119.3,13.7 127.4,21.8 127.4,27.6 				"/>
			</g>
			<g>
				<polygon class="st33" points="46.5,17.8 42.4,13.7 119.3,13.7 117.6,17.8 				"/>
			</g>
			<g>
				<polygon class="st24" points="46.5,24.5 42.4,28.6 42.4,13.7 46.5,17.8 				"/>
			</g>
			<g>
				<polygon class="st1" points="61.1,138.9 61.1,138.9 85.1,163.8 85.1,163.8 				"/>
			</g>
			<g>
				<polygon class="st1" points="83.4,65.3 83.4,65.3 93.3,75.3 93.3,75.3 				"/>
			</g>
			<g>
				<polygon class="st2" points="60,77.8 60,77.8 85.1,52.6 85.1,52.6 				"/>
			</g>
			<g>
				<rect x="137.1" y="17.9" class="st3" width="16.3" height="0"/>
			</g>
			<g>
				<polygon class="st2" points="127.4,27.6 127.4,27.6 137.1,17.9 137.1,17.9 				"/>
			</g>
			<g>
				<polygon class="st1" points="117.6,17.8 117.6,17.8 127.4,27.6 127.4,27.6 				"/>
			</g>
			<g>
				<path class="st34" d="M153.5,25.3h-6.8l0,109c0,1.8-0.1,3.7-0.4,5.7c-2,10.2-9.9,16.7-6.7,14.4c0-13.1,0-34.2,0-55.3
					c0-21.1,0-42.2,0-72.3l-12.8,11.1l-12.3-10.8c0,32.6,0,56.1,0,79.7s0,47,0,68.5c1.1-0.8,0.5-0.5,0.1-0.1
					c-4.3,3.2-8.7,5.6-7.1,4.9l0-155L93.5,25v30.2L83.4,65.3l9.9,9.9V179c-1-0.6-9.1-6.5-17.5-13.8c-6-5.3-11.2-10.5-15.7-15.4
					c-1.4-1.6-3.4-4.2-4.8-7.9c-1-2.6-1.3-4.9-1.5-6.7c0.1-35.3,0.1-71,0.2-110.8h-7.6v-6.7h71.1l9.8,9.8l9.7-9.7h16.3V25.3z
					 M85.1,163.8V78.7l-7.6-7.6L61.1,88.3v50.7L85.1,163.8 M85.1,52.6V25H60v52.7L85.1,52.6"/>
			</g>
			<g>
				<rect x="46.5" y="17.8" class="st3" width="71.1" height="0"/>
			</g>
		</g>
	</g>
</g>
<path class="st35" d="M42.4,13.7v14.9H50v107.9c0.2,1.8,0.6,4.3,1.7,7.1c2.1,5.7,5.5,9.3,8.2,12c10.4,10.6,18.3,16.9,18.3,16.9
	c4.8,3.8,11.2,8.6,19.2,13.9c0-37.6,0-75.3,0-112.9l-8.2-8.2l8.4-8.4V29.2h5.6l0,157.3l15.2-9.2l0-141l8.1,7.2l8.7-7.5l0,126.6
	c2.8-1.8,8.9-6.4,12.5-14.7c2.4-5.4,2.8-10.3,2.9-13.4c0-35,0-69.9,0-104.9h6.8V13.7h-22.2l-8,8l-8.2-8.2L42.4,13.7z"/>
<polygon class="st35" points="65.2,137.3 81,153.6 81,80.4 77.6,77 65.2,89.9 "/>
<polygon class="st35" points="64.1,67.8 81,50.9 81,29.2 64.1,29.2 "/>
<path class="st36" d="M46.4,17.9v6.8h7.6l-0.3,112c0.3,1.7,1,4.2,2.3,7.1c2,4.2,4.4,6.9,9,11.5c4.8,4.8,7.7,7.6,12.9,12
	c3.8,3.2,8.9,7.3,15.3,11.7c0-34.5,0-69,0-103.5l-9.8-9.8l9.8-10.2l0.3-30.6h13.9v155.4l6.9-5.1V27.3l12.4,10.6L139.4,27v127
	c1.7-2.1,3.9-5.4,5.6-9.9c1.3-3.7,1.8-7,2-9.5c0-36.4,0-72.7,0-109.1h6.7v-8.1h-16.5l-10,10l-9.7-9.7L46.4,17.9z"/>
</svg>
