<?xml version="1.0" encoding="utf-8"?>
<!-- Generator: Adobe Illustrator 19.2.1, SVG Export Plug-In . SVG Version: 6.00 Build 0)  -->
<svg version="1.1" id="Layer_1" xmlns="http://www.w3.org/2000/svg" xmlns:xlink="http://www.w3.org/1999/xlink" x="0px" y="0px"
	 viewBox="0 0 144 144" style="enable-background:new 0 0 144 144;" xml:space="preserve">
<style type="text/css">
	.st0{enable-background:new    ;}
	.st1{clip-path:url(#SVGID_2_);enable-background:new    ;}
	.st2{fill:#858585;}
	.st3{fill:#8A8A8A;}
	.st4{fill:#8F8F8F;}
	.st5{clip-path:url(#SVGID_4_);enable-background:new    ;}
	.st6{clip-path:url(#SVGID_6_);enable-background:new    ;}
	.st7{fill:#808080;}
	.st8{fill:#828282;}
	.st9{fill:#838383;}
	.st10{fill:#B6B6B6;}
	.st11{fill:#848484;}
	.st12{fill:#D6D6D6;}
	.st13{fill:#919191;}
	.st14{fill:#DADADA;}
	.st15{fill:#ACACAC;}
	.st16{fill:#AFAFAF;}
	.st17{fill:#B1B1B1;}
	.st18{clip-path:url(#SVGID_8_);enable-background:new    ;}
	.st19{clip-path:url(#SVGID_10_);enable-background:new    ;}
	.st20{fill:#949494;}
	.st21{clip-path:url(#SVGID_12_);enable-background:new    ;}
	.st22{clip-path:url(#SVGID_14_);enable-background:new    ;}
	.st23{clip-path:url(#SVGID_16_);enable-background:new    ;}
	.st24{clip-path:url(#SVGID_18_);enable-background:new    ;}
	.st25{clip-path:url(#SVGID_20_);enable-background:new    ;}
	.st26{clip-path:url(#SVGID_22_);enable-background:new    ;}
	.st27{fill:#C7C7C7;}
	.st28{fill:#C2C2C2;}
	.st29{fill:#BDBDBD;}
	.st30{fill:#B8B8B8;}
	.st31{fill:#B3B3B3;}
	.st32{fill:#ADADAD;}
	.st33{fill:#A8A8A8;}
	.st34{fill:#A3A3A3;}
	.st35{fill:#9E9E9E;}
	.st36{fill:#999999;}
	.st37{fill:#DBDBDB;}
	.st38{clip-path:url(#SVGID_24_);enable-background:new    ;}
	.st39{clip-path:url(#SVGID_26_);enable-background:new    ;}
	.st40{clip-path:url(#SVGID_28_);enable-background:new    ;}
	.st41{fill:#E3E3E3;}
</style>
<g>
	<g>
		<g class="st0">
			<g class="st0">
				<defs>
					<path id="SVGID_1_" class="st0" d="M89.8,100.8c0.3-0.6,0.5-1,0.6-1.5c0,0.1,0.1,0,0.5-0.3C90.8,99.1,89.8,100.8,89.8,100.8z"
						/>
				</defs>
				<clipPath id="SVGID_2_">
					<use xlink:href="#SVGID_1_"  style="overflow:visible;"/>
				</clipPath>
				<g class="st1">
					<path class="st2" d="M90.2,100.5l0.2-1.1c0,0.1,0.1,0,0.3-0.2l-0.9,1.6C89.8,100.8,90,100.7,90.2,100.5"/>
					<path class="st3" d="M89.8,100.8l0.9-1.6c0,0,0.1,0,0.1-0.1L89.8,100.8C89.8,100.8,89.8,100.8,89.8,100.8"/>
					<path class="st4" d="M89.8,100.8l1-1.7c0,0,0,0,0.1-0.1L89.8,100.8C89.8,100.8,89.8,100.8,89.8,100.8"/>
				</g>
			</g>
			<g class="st0">
				<defs>
					<path id="SVGID_3_" class="st0" d="M75,112c0.2-0.3,0.3-0.4,0.4-0.8c0,0,0.1,0,0.3-0.1C75.7,111.2,75,112,75,112z"/>
				</defs>
				<clipPath id="SVGID_4_">
					<use xlink:href="#SVGID_3_"  style="overflow:visible;"/>
				</clipPath>
				<g class="st5">
					<path class="st2" d="M75.2,111.9l0.2-0.6c0,0,0.1,0,0.3-0.1L75,112C75,112,75.1,112,75.2,111.9"/>
				</g>
			</g>
			<g class="st0">
				<defs>
					<path id="SVGID_5_" class="st0" d="M79,108.8c0.5,0.3,0.7,0.5,1.1,0.6c-0.5-0.1-1.1-0.2-1.5-0.3C78.9,108.9,79,108.8,79,108.8z
						"/>
				</defs>
				<clipPath id="SVGID_6_">
					<use xlink:href="#SVGID_5_"  style="overflow:visible;"/>
				</clipPath>
				<g class="st6">
					<path class="st4" d="M80.1,109.4l-1.5-0.3c0.1-0.1,0.2-0.1,0.2-0.2L80.1,109.4C80.1,109.4,80.1,109.4,80.1,109.4"/>
					<path class="st3" d="M80.1,109.4l-1.3-0.5c0,0,0,0,0.1,0L80.1,109.4C80.1,109.4,80.1,109.4,80.1,109.4"/>
					<path class="st2" d="M80.1,109.4l-1.2-0.5c0.1-0.1,0.1-0.1,0.1-0.1l1,0.7C80,109.5,80.1,109.4,80.1,109.4"/>
				</g>
			</g>
			<g>
				<rect x="44.8" y="37.2" class="st7" width="3.6" height="2.8"/>
			</g>
			<g>
				<rect x="55.1" y="37.4" class="st7" width="8" height="2.8"/>
			</g>
			<g>
				<polygon class="st7" points="73.5,37.4 73.5,40.2 70.9,40.2 70.9,37.4 				"/>
			</g>
			<g>
				<rect x="96" y="37.6" class="st7" width="3.2" height="2.8"/>
			</g>
			<g>
				<polygon class="st7" points="84.6,44.1 84.6,46.9 80.8,43.5 80.8,40.7 				"/>
			</g>
			<g>
				<polygon class="st8" points="88.7,40.5 88.7,43.3 84.6,46.9 84.6,44.1 				"/>
			</g>
			<g>
				<polygon class="st9" points="70.9,50.4 70.9,53.2 66.9,57.1 66.9,54.3 				"/>
			</g>
			<g>
				<polygon class="st7" points="63,61.4 63,64.2 61.4,62.6 61.4,59.8 				"/>
			</g>
			<g>
				<polygon class="st10" points="46.9,31.7 44.8,30.2 81.1,30.2 80.2,31.7 				"/>
			</g>
			<g>
				<polygon class="st10" points="89.6,31.7 88.7,30.2 99.2,30.2 97.1,31.7 				"/>
			</g>
			<g>
				<polygon class="st11" points="61.4,59.8 61.4,62.6 55.6,68.6 55.6,65.9 				"/>
			</g>
			<g>
				<polygon class="st4" points="50.5,34.4 48.4,37.2 44.8,37.2 46.9,34.4 				"/>
			</g>
			<g>
				<polygon class="st9" points="46.9,34.4 44.8,37.2 44.8,30.2 46.9,31.7 				"/>
			</g>
			<g>
				<polygon class="st4" points="65.2,34.7 63,37.4 55.1,37.4 52.9,34.7 				"/>
			</g>
			<g>
				<polygon class="st4" points="75.7,34.7 73.5,37.4 70.9,37.4 68.8,34.7 				"/>
			</g>
			<g>
				<polygon class="st12" points="97.1,31.7 99.2,30.2 99.2,37.6 97.1,34.8 				"/>
			</g>
			<g>
				<polygon class="st4" points="97.1,34.8 99.2,37.6 96,37.6 93.9,34.8 				"/>
			</g>
			<g>
				<polygon class="st13" points="84.9,36.3 84.9,34 88.7,30.2 89.6,31.7 				"/>
			</g>
			<g>
				<polygon class="st14" points="80.2,31.7 81.1,30.2 84.9,34 84.9,36.3 				"/>
			</g>
			<g>
				<polygon class="st11" points="84.6,40.6 84.6,44.1 80.8,40.7 78.6,35.4 				"/>
			</g>
			<g>
				<polygon class="st15" points="90.8,35.3 88.7,40.5 84.6,44.1 84.6,40.6 				"/>
			</g>
			<g>
				<polygon class="st9" points="65.2,47.8 63,47.6 63,37.4 65.2,34.7 				"/>
			</g>
			<g>
				<polygon class="st12" points="68.8,34.7 70.9,37.4 70.9,50.4 68.8,48.9 				"/>
			</g>
			<g>
				<polygon class="st16" points="68.8,48.9 70.9,50.4 66.9,54.3 63.9,53.7 				"/>
			</g>
			<g>
				<polygon class="st14" points="63.9,53.7 66.9,54.3 70.8,58.2 68.7,58.4 				"/>
			</g>
			<g>
				<polygon class="st9" points="65.2,59.9 63,61.4 61.4,59.8 61.4,56.2 				"/>
			</g>
			<g>
				<polygon class="st13" points="52.9,60 55.1,55.5 63,47.6 65.2,47.8 				"/>
			</g>
			<g>
				<polygon class="st12" points="52.9,34.7 55.1,37.4 55.1,55.5 52.9,60 				"/>
			</g>
			<g>
				<polygon class="st17" points="61.4,56.2 61.4,59.8 55.6,65.9 53.4,64.4 				"/>
			</g>
			<g class="st0">
				<defs>
					<path id="SVGID_7_" class="st0" d="M88.7,99.8l0,2.8c0-19.7,0-39.5,0-59.2l0-2.8C88.7,60.3,88.7,80,88.7,99.8z"/>
				</defs>
				<clipPath id="SVGID_8_">
					<use xlink:href="#SVGID_7_"  style="overflow:visible;"/>
				</clipPath>
				<g class="st18">
					<path class="st2" d="M88.7,99.8v2.8c0-19.7,0-39.5,0-59.2v-2.8C88.7,60.3,88.7,80,88.7,99.8"/>
				</g>
			</g>
			<g class="st0">
				<defs>
					<path id="SVGID_9_" class="st0" d="M96,87l0,2.8c0,0.8-0.1,1.7-0.3,2.6c-1.1,5.5-5.3,8.9-7,10.1l0-2.8c1.8-1.2,6-4.6,7-10.1
						C95.9,88.7,96,87.8,96,87z"/>
				</defs>
				<clipPath id="SVGID_10_">
					<use xlink:href="#SVGID_9_"  style="overflow:visible;"/>
				</clipPath>
				<g class="st19">
					<path class="st20" d="M96,87v2.8c0,0.8-0.1,1.7-0.3,2.6c0,0,0,0,0,0v-2.8c0,0,0,0,0,0C95.9,88.7,96,87.8,96,87"/>
					<path class="st4" d="M95.8,89.7v2.8c-0.2,1-0.5,1.9-0.8,2.7v-2.8C95.3,91.5,95.6,90.6,95.8,89.7"/>
					<path class="st3" d="M94.9,92.3v2.8c-0.5,1.1-1,2.1-1.7,2.9v-2.8C93.9,94.4,94.5,93.4,94.9,92.3"/>
					<path class="st2" d="M93.3,95.3v2.8c-1.6,2.3-3.5,3.7-4.6,4.5v-2.8C89.8,99,91.7,97.5,93.3,95.3"/>
				</g>
			</g>
			<g class="st0">
				<defs>
					<path id="SVGID_11_" class="st0" d="M80.8,40.7l0,2.8c0,22,0,44,0,66l0-2.8C80.7,84.7,80.8,62.7,80.8,40.7z"/>
				</defs>
				<clipPath id="SVGID_12_">
					<use xlink:href="#SVGID_11_"  style="overflow:visible;"/>
				</clipPath>
				<g class="st21">
					<path class="st20" d="M80.8,40.7v2.8c0,22,0,44,0,66v-2.8C80.7,84.7,80.8,62.7,80.8,40.7"/>
				</g>
			</g>
			<g class="st0">
				<defs>
					<path id="SVGID_13_" class="st0" d="M70.8,111l0,2.8c-3.5-2.2-7.5-5-11.5-8.5c-2.9-2.5-5.4-5-7.6-7.4c-0.8-0.9-1.9-2.3-2.6-4.3
						c-0.5-1.4-0.7-2.7-0.8-3.6v-2.8c0.1,1,0.3,2.2,0.8,3.6c0.8,2,1.8,3.4,2.6,4.3c2.2,2.4,4.7,4.8,7.6,7.4
						C63.3,106,67.2,108.8,70.8,111z"/>
				</defs>
				<clipPath id="SVGID_14_">
					<use xlink:href="#SVGID_13_"  style="overflow:visible;"/>
				</clipPath>
				<g class="st22">
					<path class="st2" d="M70.8,111v2.8c-3.5-2.2-7.5-5-11.5-8.5c-2.9-2.5-5.4-5-7.6-7.4c-0.8-0.9-1.9-2.3-2.6-4.3
						c-0.5-1.4-0.7-2.7-0.8-3.6v-2.8c0.1,1,0.3,2.2,0.8,3.6c0.8,2,1.8,3.4,2.6,4.3c2.2,2.4,4.7,4.8,7.6,7.4
						C63.3,106,67.2,108.8,70.8,111"/>
				</g>
			</g>
			<g class="st0">
				<defs>
					<path id="SVGID_15_" class="st0" d="M80.7,106.7l0,2.8c-0.2,0.2-0.5,0.4-0.8,0.6c-2.2,1.6-4.3,2.8-6.4,3.8l0-2.8
						c2.1-1,4.3-2.2,6.4-3.8C80.2,107.1,80.5,106.9,80.7,106.7z"/>
				</defs>
				<clipPath id="SVGID_16_">
					<use xlink:href="#SVGID_15_"  style="overflow:visible;"/>
				</clipPath>
				<g class="st23">
					<path class="st2" d="M80.7,106.7v2.8c-0.2,0.2-0.5,0.4-0.8,0.6c-2.2,1.6-4.3,2.8-6.4,3.8V111c2.1-1,4.3-2.2,6.4-3.8
						C80.2,107.1,80.5,106.9,80.7,106.7"/>
				</g>
			</g>
			<g>
				<polygon class="st12" points="93.9,34.8 96,37.6 96,86.6 93.9,86 				"/>
			</g>
			<g class="st0">
				<defs>
					<path id="SVGID_17_" class="st0" d="M50.4,86.4l-2.1,0.8c0-16.7,0.1-33.4,0.1-50l2.1-2.7C50.5,53.2,50.4,69.9,50.4,86.4z"/>
				</defs>
				<clipPath id="SVGID_18_">
					<use xlink:href="#SVGID_17_"  style="overflow:visible;"/>
				</clipPath>
				<g class="st24">
					<path class="st2" d="M50.4,86.4l-2.1,0.8c0-16.7,0.1-33.4,0.1-50l2.1-2.7C50.5,53.2,50.4,69.9,50.4,86.4"/>
				</g>
			</g>
			<g>
				<polygon class="st12" points="53.4,64.4 55.6,65.9 55.6,88 53.4,88.2 				"/>
			</g>
			<g class="st0">
				<defs>
					<path id="SVGID_19_" class="st0" d="M90.8,95l-2.1,4.7c0-19.7,0-39.5,0-59.2l2.1-5.3C90.8,59.6,90.8,79.4,90.8,95z"/>
				</defs>
				<clipPath id="SVGID_20_">
					<use xlink:href="#SVGID_19_"  style="overflow:visible;"/>
				</clipPath>
				<g class="st25">
					<path class="st2" d="M90.8,95l-2.1,4.7c0-19.7,0-39.5,0-59.2l2.1-5.3C90.8,59.6,90.8,79.4,90.8,95"/>
				</g>
			</g>
			<g class="st0">
				<defs>
					<path id="SVGID_21_" class="st0" d="M89.8,97.4c0.3-0.8,0.5-1.3,0.6-2.1c0-0.2,2.6-2.9,3.3-6.7c0.2-0.9,0.2-1.8,0.2-2.6
						l2.1,0.6c0,0.9,0,2-0.3,3c-1.1,5.5-5.3,8.9-7,10.1C88.7,99.8,89.8,97.4,89.8,97.4z"/>
				</defs>
				<clipPath id="SVGID_22_">
					<use xlink:href="#SVGID_21_"  style="overflow:visible;"/>
				</clipPath>
				<g class="st26">
					<path class="st27" d="M93.9,86l2.1,0.6c0,0.4,0,0.8,0,1.2l-2.1-0.8C93.9,86.7,93.9,86.3,93.9,86"/>
					<path class="st28" d="M93.9,87.1l2.1,0.8c0,0.5-0.1,1.1-0.2,1.6l-2.1-1C93.8,88,93.8,87.5,93.9,87.1"/>
					<path class="st29" d="M93.7,88.4l2.1,1c0,0.1,0,0.1,0,0.2c-0.1,0.5-0.2,0.9-0.3,1.3l-2-1.2c0.1-0.4,0.2-0.7,0.3-1.1
						C93.7,88.5,93.7,88.5,93.7,88.4"/>
					<path class="st30" d="M93.4,89.7l2,1.2c-0.1,0.5-0.3,0.9-0.5,1.4l-2-1.4C93.1,90.5,93.3,90.2,93.4,89.7"/>
					<path class="st31" d="M93,90.9l2,1.4c-0.2,0.5-0.4,0.9-0.6,1.3L92.5,92C92.7,91.7,92.8,91.3,93,90.9"/>
					<path class="st32" d="M92.5,92l1.8,1.6c-0.2,0.4-0.5,0.8-0.8,1.2L91.9,93C92.1,92.7,92.3,92.4,92.5,92"/>
					<path class="st33" d="M91.9,93l1.6,1.9c-0.3,0.4-0.6,0.8-0.9,1.2l-1.3-2.2C91.5,93.6,91.7,93.3,91.9,93"/>
					<path class="st34" d="M91.4,93.9l1.3,2.2c-0.4,0.4-0.7,0.8-1.1,1.2l-0.8-2.6C91,94.5,91.1,94.2,91.4,93.9"/>
					<path class="st35" d="M90.8,94.7l0.8,2.6c-0.5,0.5-0.9,0.9-1.4,1.3l0.1-3.3C90.4,95.2,90.6,95,90.8,94.7"/>
					<path class="st36" d="M90.4,95.3l-0.1,3.3c-0.5,0.4-0.9,0.7-1.3,1l1.7-4.4C90.4,95.3,90.3,95.4,90.4,95.3"/>
					<path class="st20" d="M90.6,95.2L89,99.6c0,0,0,0-0.1,0L90.6,95.2C90.7,95.2,90.7,95.2,90.6,95.2"/>
					<path class="st4" d="M90.7,95.2l-1.8,4.5c0,0,0,0-0.1,0L90.7,95.2C90.7,95.1,90.7,95.1,90.7,95.2"/>
					<path class="st3" d="M90.7,95.1l-1.9,4.6c0,0,0,0-0.1,0L90.7,95.1C90.8,95.1,90.8,95.1,90.7,95.1"/>
					<path class="st2" d="M90.8,95.1l-2,4.6c0,0,0,0-0.1,0L90.8,95.1C90.8,95.1,90.8,95.1,90.8,95.1"/>
				</g>
			</g>
			<g>
				<polygon class="st37" points="53.4,88.2 55.6,88 63,95.6 65.2,100.2 				"/>
			</g>
			<g>
				<polygon class="st9" points="65.2,100.2 63,95.6 63,61.4 65.2,59.9 				"/>
			</g>
			<g class="st0">
				<defs>
					<path id="SVGID_23_" class="st0" d="M78.6,35.4l2.1,5.3c0,22,0,44,0,66l-2.1-1.7C78.6,84.1,78.6,62.1,78.6,35.4z"/>
				</defs>
				<clipPath id="SVGID_24_">
					<use xlink:href="#SVGID_23_"  style="overflow:visible;"/>
				</clipPath>
				<g class="st38">
					<path class="st27" d="M78.6,35.4l2.1,5.3c0,22,0,44,0,66l-2.1-1.7C78.6,84.1,78.6,62.1,78.6,35.4"/>
				</g>
			</g>
			<g class="st0">
				<defs>
					<path id="SVGID_25_" class="st0" d="M68.7,106.5l2.1,4.5c-3.5-2.2-7.5-5-11.5-8.5c-2.9-2.5-5.4-5-7.6-7.4
						c-0.8-0.9-1.9-2.3-2.6-4.3c-0.5-1.4-0.7-2.7-0.8-3.6l2.1-0.8c0.1,0.8,0.2,1.9,0.7,3.1c0.6,1.7,1.6,2.9,2.2,3.6
						c2.1,2.3,4.6,4.7,7.4,7.2C64.6,103.7,68.5,106.4,68.7,106.5z"/>
				</defs>
				<clipPath id="SVGID_26_">
					<use xlink:href="#SVGID_25_"  style="overflow:visible;"/>
				</clipPath>
				<g class="st39">
					<path class="st2" d="M68.7,106.5l2.1,4.5c-3.5-2.2-7.5-5-11.5-8.5c-2.9-2.5-5.4-5-7.6-7.4c-0.8-0.9-1.9-2.3-2.6-4.3
						c-0.5-1.4-0.7-2.7-0.8-3.6l2.1-0.8c0.1,0.8,0.2,1.9,0.7,3.1c0.6,1.7,1.6,2.9,2.2,3.6c2.1,2.3,4.6,4.7,7.4,7.2
						C64.6,103.7,68.5,106.4,68.7,106.5"/>
				</g>
			</g>
			<g>
				<polygon class="st12" points="68.7,58.4 70.8,58.2 70.8,111 68.7,106.5 				"/>
			</g>
			<g>
				<polygon class="st9" points="75.7,107.1 73.5,111 73.5,37.4 75.7,34.7 				"/>
			</g>
			<g class="st0">
				<defs>
					<path id="SVGID_27_" class="st0" d="M79,104.7c0.4,0.6,0.6,0.9,0.8,1.2c0.2,0.2,0.2,0.2,0.9,0.8c-0.2,0.2-0.5,0.4-0.8,0.6
						c-2.2,1.6-4.3,2.8-6.4,3.8l1.4-2.6c0.2-0.3,0.3-0.6,0.4-1.2c0-0.1,1.7-1.1,3.3-2.3C78.8,104.8,79,104.7,79,104.7z"/>
				</defs>
				<clipPath id="SVGID_28_">
					<use xlink:href="#SVGID_27_"  style="overflow:visible;"/>
				</clipPath>
				<g class="st40">
					<path class="st2" d="M78.6,105l2.1,1.7c-0.1,0-0.1,0.1-0.2,0.1l-1.6-2.1C78.9,104.8,78.8,104.9,78.6,105"/>
					<path class="st3" d="M78.9,104.8l1.6,2.1c0,0,0,0,0,0L78.9,104.8C78.9,104.8,78.9,104.8,78.9,104.8"/>
					<path class="st4" d="M78.9,104.8l1.6,2.1c0,0,0,0,0,0L78.9,104.8C78.9,104.8,78.9,104.8,78.9,104.8"/>
					<path class="st20" d="M78.9,104.8l1.6,2.1c0,0,0,0,0,0L78.9,104.8C79,104.8,78.9,104.8,78.9,104.8"/>
					<path class="st36" d="M79,104.8l1.5,2.1c-0.2,0.1-0.3,0.2-0.5,0.4c-0.9,0.6-1.8,1.2-2.7,1.8l-0.9-2.5c0.6-0.4,1.5-1,2.3-1.6
						C78.9,104.8,79,104.7,79,104.8"/>
					<path class="st20" d="M76.4,106.5l0.9,2.5c-1.3,0.8-2.5,1.4-3.8,2l2.1-3.9C75.1,107.4,75.5,107.1,76.4,106.5"/>
				</g>
			</g>
			<g>
				<path class="st41" d="M97.1,34.8h-3.2l0,51.2c0,0.9,0,1.7-0.2,2.6c-0.9,4.7-4.6,7.7-2.8,6.4c0-15.7,0-35.4,0-59.8l-6.2,5.3
					l-6-5.2c0,26.7,0,48.7,0,69.6c0.6-0.5,0.3-0.3,0.1-0.1c-2,1.5-4.1,2.6-3.1,2.2V34.7l-6.9,0v14.2l-4.9,4.8l4.8,4.7v48.1
					c-0.2-0.1-4-2.9-8-6.3c-2.8-2.5-5.3-4.9-7.4-7.2c-0.7-0.7-1.6-1.9-2.2-3.6c-0.4-1.2-0.6-2.3-0.7-3.1c0-16.5,0.1-33.2,0.1-52
					h-3.6v-2.8h33.3l4.7,4.7l4.7-4.6h7.5V34.8z M65.2,100.2V59.9l-3.8-3.8l-7.9,8.2v23.8L65.2,100.2 M65.2,47.8V34.7H52.9V60
					L65.2,47.8"/>
			</g>
		</g>
	</g>
</g>
</svg>
